<svg xmlns="http://www.w3.org/2000/svg" viewBox="0 0 256 256" width="256" height="256"><path d="M128 0A128 128 0 0 0 0 128a128 128 0 0 0 128 128 128 128 0 0 0 128-128A128 128 0 0 0 128 0zm0 58c.1 0 .3.1.3.3l58.8 100.4c.1.2 0 .4-.1.6l-33.9 38.1c-.1.1-.3.2-.4.2h-27.5c-.5 0-.7-.5-.4-.8l18.4-20.7 17.2-19.3c.2-.2.2-.4.1-.6l-32.6-56-12.3-21.1c-.1-.1-.1-.3 0-.5l11.9-20.3c.1-.2.3-.3.5-.3zm-16.6 28.4h.1c.1 0 .3 0 .4.2l11.8 20.4c.1.1.1.3 0 .5l-28.5 48.9c-.1.2 0 .4.1.6l17 19.2c.1.1.3.2.4.2H133c.5 0 .7.5.4.8l-18.3 20.5c-.1.1-.3.2-.4.3h-11.5c-.2 0-.3-.1-.4-.2l-33.9-38.1c-.1-.2-.1-.4 0-.6L111 86.6c.1-.1.3-.2.5-.2h-.1z"/></svg>