<svg id="Layer_1" xmlns="http://www.w3.org/2000/svg" viewBox="0 0 144 144"><style>.st0{fill:#231f20}</style><path class="st0" d="M43.1 77.4H10.2V61.9h26.2c-1.4-3.5-2.9-6.8-4.3-10.2H10.3c-.3-.9-.3-12.8-.1-15.4h15.3c-1.6-4.1-3.4-8.1-5-12-1.6-4-3.4-8-5-12s-3.4-8-5.2-12c.4 0 .7-.1 1.1-.1H30c.9 0 1.2.5 1.5 1.2C38 16.7 44.3 32 50.8 47.1c1.9 4.6 3.9 9.1 5.7 13.7.1.4.4.7.5 1.1h30.3c.1-.4.4-.7.5-.9 8.3-19.7 16.6-39.5 25-59.2.1-.4.2-.6.4-.9.1-.4.5-.6.8-.6h20.1c-1.6 4.1-3.4 8-5 12s-3.4 8-5 12-3.4 8-5.2 12.1c5.2.1 10.2 0 15.2 0v15.5h-21.9c-1.4 3.4-2.8 6.7-4.3 10.1 1.5.2 2.9.1 4.3.1h21.9v15.5h-32.9c-9.6 22.3-19.1 44.5-28.6 66.7h-.2C62.2 122 52.7 99.7 43.1 77.4zm28.7 20.3c2.5-5.2 8.3-19.2 8.3-20.3H63.2c3 6.8 5.8 13.5 8.6 20.3z"/></svg>