<svg xmlns="http://www.w3.org/2000/svg" viewBox="0 0 144 144"><path d="M68.7 0H75c.1 0 .2.1.3.1 2.4.2 5 .3 7.4.7 7.5 1 14.5 3.3 21.3 6.7 7.6 3.8 14.3 8.8 20.1 14.9 7.3 7.6 12.6 16.5 16 26.4 2.4 7 3.7 14.3 3.8 21.8 0 .1 0 .2.1.3V73c0 .1-.1.2-.1.3 0 3.8-.5 7.6-1.2 11.4-1.3 7.1-3.6 14.1-6.9 20.5-4.7 9-11 16.6-18.9 22.9-11.5 9.2-24.6 14.4-39.2 15.6-5.5.5-11 .2-16.5-.6-8.1-1.2-15.7-3.6-22.8-7.4-14.2-7.5-24.8-18.6-31.7-33.1C2.8 94.4.6 85.7 0 76.5c0-.7-.1-1.3-.1-2V69c0-.1.1-.2.1-.5.2-2.7.5-5.3.8-7.8C2 53 4.4 45.6 7.9 38.7c3.7-7 8.4-13.4 14.2-18.9 8-7.6 17.3-13.1 27.8-16.6C55.6 1.6 61.2.5 67 .1c.4 0 1.1 0 1.7-.1zm25.8 69.2c.8-2 1.7-3.9 2.4-5.8.1-.3.3-.5.7-.5h13.1v-9.6h-9.3c3.2-7.4 6.3-14.8 9.5-22.1H98.6c-.5 0-.6.1-.8.6-1.5 3.6-3 7.3-4.5 10.8-3.7 8.6-7.3 17.3-11 25.9-.2.5-.5.7-.9.7H64c-.5 0-.7-.1-.9-.6-2.1-5.1-4.3-10.1-6.3-15.1-3-7.1-6-14.3-9-21.4-.3-.8-.5-.8-1.3-.8h-11c-.2 0-.5 0-.8.1 3.1 7.4 6.3 14.8 9.5 22.1h-9.5v8.8c0 .5.1.6.6.6h12.5c.2 0 .5 0 .6.3.8 1.8 1.5 3.7 2.3 5.4.1.1.1.3.2.6H34.8v9.5h19.9c.3 0 .6.1.7.5 2.4 5.6 4.8 11.3 7.3 17.1 3.3 7.7 6.7 15.4 9.9 23.2.1.1.1.3.2.6.1-.3.2-.5.2-.7 5.8-13.4 11.4-26.7 17.2-40.1.1-.3.3-.5.7-.5h19.7v-9.6H94.5z"/><path d="M72.6 91.2c-1.7-4.2-3.5-8.3-5.2-12.5h10.4c-1.5 4.3-3.3 8.3-5.2 12.5z"/></svg>